<?xml version="1.0" encoding="UTF-8" standalone="no"?>
<!-- Creator: CorelDRAW -->

<svg
   xml:space="preserve"
   width="282.962mm"
   height="105.265mm"
   style="shape-rendering:geometricPrecision; text-rendering:geometricPrecision; image-rendering:optimizeQuality; fill-rule:evenodd; clip-rule:evenodd"
   viewBox="0 0 28336.2 10541.3"
   id="svg2"
   version="1.1"
   inkscape:version="1.3 (0e150ed6c4, 2023-07-21)"
   sodipodi:docname="Bodensee_Outline.svg"
   inkscape:export-filename="Bodensee_Outline.png"
   inkscape:export-xdpi="36.194366"
   inkscape:export-ydpi="36.194366"
   xmlns:inkscape="http://www.inkscape.org/namespaces/inkscape"
   xmlns:sodipodi="http://sodipodi.sourceforge.net/DTD/sodipodi-0.dtd"
   xmlns="http://www.w3.org/2000/svg"
   xmlns:svg="http://www.w3.org/2000/svg"
   xmlns:rdf="http://www.w3.org/1999/02/22-rdf-syntax-ns#"
   xmlns:cc="http://creativecommons.org/ns#"
   xmlns:dc="http://purl.org/dc/elements/1.1/"><metadata
   id="metadata14"><rdf:RDF><cc:Work
       rdf:about=""><dc:format>image/svg+xml</dc:format><dc:type
         rdf:resource="http://purl.org/dc/dcmitype/StillImage" /></cc:Work></rdf:RDF></metadata><sodipodi:namedview
   pagecolor="#ffffff"
   bordercolor="#666666"
   borderopacity="1"
   objecttolerance="10"
   gridtolerance="10"
   guidetolerance="10"
   inkscape:pageopacity="0"
   inkscape:pageshadow="2"
   inkscape:window-width="3440"
   inkscape:window-height="1377"
   id="namedview12"
   showgrid="false"
   inkscape:zoom="0.34409802"
   inkscape:cx="-139.49514"
   inkscape:cy="-280.44335"
   inkscape:window-x="1912"
   inkscape:window-y="-8"
   inkscape:window-maximized="1"
   inkscape:current-layer="Ebene_x0020_1"
   inkscape:showpageshadow="2"
   inkscape:pagecheckerboard="0"
   inkscape:deskcolor="#d1d1d1"
   inkscape:document-units="mm"
   inkscape:export-bgcolor="#212529ff" />&#10; <defs
   id="defs4"><linearGradient
   id="linearGradient10"><stop
     style="stop-color:#000000;stop-opacity:1;"
     offset="0"
     id="stop13" /><stop
     style="stop-color:#000000;stop-opacity:0;"
     offset="1"
     id="stop14" /></linearGradient><linearGradient
   id="swatch5"
   inkscape:swatch="solid"><stop
     style="stop-color:#000000;stop-opacity:1;"
     offset="0"
     id="stop6" /></linearGradient>&#10;  <style
   type="text/css"
   id="style6">&#10;   &#10;    .fil0 {fill:#495677}&#10;   &#10;  </style>&#10; <clipPath
   clipPathUnits="userSpaceOnUse"
   id="clipPath16"><path
     class="fil0"
     d="m 16590.379,6063.9306 c -50.978,-18.6053 -199.455,-22.053 -353.306,-60.0486 -127.645,-59.7591 -127.645,-59.7591 -324.491,-183.9589 -331.389,-85.5733 -616.583,-111.9853 -933.862,-297.0649 -395.88,-119.7822 -781.268,-338.4994 -1177.394,-436.1274 -238.843,-108.8178 -486.493,-202.9886 -603.979,-268.7571 -116.74,-132.2411 -154.194,-135.2624 -211.049,-334.319 -165.267,-301.6187 -259.579,-313.4833 -537.468,-411.8075 -414.695,-50.4985 -414.695,-50.4985 -952.829,-86.2147 -569.642,-119.2872 -1139.276,-238.5766 -1704.6246,-354.1117 -716.6893,5.3268 -1440.4271,-129.8011 -2156.937,-75.8416 -179.1291,-34.0631 -357.5882,-63.8109 -532.4295,-94.1126 -108.6693,-80.4071 -108.6693,-80.4071 -213.4835,-183.5392 -205.2462,-83.0801 -421.7438,-0.7416 -599.694,115.4037 -200.6299,208.1461 -200.6299,208.1461 -419.7298,392.6291 -133.4486,69.4102 -266.8876,138.8285 -400.3348,208.2478 -323.6581,59.1868 -649.33,105.4285 -979.7056,121.4377 -175.8526,58.3194 -328.5321,170.5336 -486.8347,270.355 -373.8727,164.3192 -764.2153,317.9326 -1093.0755,581.4184 -238.4219,298.0685 -460.1244,584.688 -586.5179,984.7571 -159.6451,91.191 -337.5099,326.7591 -416.0372,511.4825 -211.7106,231.9857 -373.6259,522.5718 -568.2088,769.5895 -64.5794,36.5905 -128.4877,77.496 -192.3956,118.4014 -141.503,17.5832 -498.41583,148.3001 -447.27513,-164.867 174.09395,-93.4294 296.61981,-90.3736 402.00903,-292.5517 149.3204,-133.8072 250.93,-193.8543 340.5376,-402.4171 80.4516,-100.9875 192.0629,-215.661 263.9483,-324.1552 80.2892,-339.8264 180.9768,-572.2283 396.303,-804.7767 53.8298,-105.6945 90.0282,-182.1019 176.5282,-244.2088 -2.6878,-17.2783 -4.7029,-30.2324 -6.7181,-43.1868 5.8796,-9.7628 16.0382,-15.7717 26.1984,-21.7718 -24.1858,-155.4772 36.278,-337.3994 139.7437,-433.1193 1.8492,-35.6713 1.8492,-35.6713 51.6487,-167.2739 -13.606,-325.211 -13.2679,-418.1555 -294.0999,-511.5944 -364.8936,8.102 -648.495,-31.8248 -1008.5134,-135.0613 -196.76069,-4.7758 -453.74103,-40.0048 -597.26242,-225.5797 -108.16585,-695.3377 853.39792,-552.9732 1221.74302,-610.2725 71.9702,10.9205 304.0874,76.5533 382.6916,11.2454 -0.4162,-26.4796 -0.8385,-52.9495 -0.5897,-75.104 -148.6433,-52.073 -296.6153,-99.8311 -440.9718,-148.1514 -162.2516,3.1237 -438.5451,81.4871 -477.511,-169.003 83.8942,-150.1742 271.4235,-157.2302 419.6432,-131.6359 488.9333,242.4311 964.673,186.1219 1474.944,137.7092 296.1919,73.3521 296.1919,73.3521 496.3191,99.7204 357.6698,-6.9782 706.8541,-92.2609 962.3238,266.103 7.3907,47.5107 15.4527,99.3369 27.13,150.5996 -279.2341,273.453 -446.1887,246.345 -777.2376,67.8261 -196.5132,-26.9393 -491.1939,-43.0181 -657.6412,75.7572 56.435,362.7893 389.9138,390.5387 642.8619,399.8415 302.7488,-122.291 302.7488,-122.291 456.0106,-159.4 223.5552,-132.0875 491.8748,-333.0757 754.0557,-311.9325 349.9435,228.6591 556.1144,484.1123 894.3036,161.6754 44.7584,-68.8908 90.1893,-133.4573 139.2343,-198.5956 364.141,-322.0451 837.8687,-201.1142 1251.3029,-420.2482 52.9111,-87.8459 66.5119,-143.0413 47.7001,-263.9714 -207.0901,-237.614 -403.7725,-503.3813 -669.6535,-643.3868 -161.0747,-36.8713 -294.5987,-86.8672 -439.1295,-183.821 -4.0303,-25.9084 -7.3894,-47.5017 -10.7498,-69.104 72.9809,-77.7003 271.0856,-64.2857 138.3961,-251.5444 -122.021,-47.3661 -192.2247,-23.1777 -186.0929,135.1177 -122.191,284.4076 -471.212,-342.4995 -533.3566,-456.688 C 5483.8925,762.87284 5483.8925,762.87284 5436.3621,695.07059 5230.526,536.88644 5139.8301,524.45948 4886.4644,488.66764 4656.189,387.3653 4448.3399,406.4299 4206.9029,399.75579 4042.884,367.76191 4042.884,367.76191 3780.7849,275.82923 c -189.2885,-28.05392 -189.2885,-28.05392 -636.0626,-47.02706 -168.2971,-35.7389 -332.3086,-67.73403 -496.3191,-99.72056 -306.9504,-142.464141 -612.8038,-254.12548 -922.4325,-413.8608 -244.9711,-76.90058 -453.4094,-132.93935 -644.2947,-337.69095 -37.622,-241.85118 -41.1484,-312.07888 108.4201,-468.04956 162.0778,-51.748 313.156,-150.4547 479.2724,-176.2956 497.3262,201.3128 497.3262,201.3128 770.2637,291.55981 346.4987,87.64252 705.2635,111.45823 1054.0302,189.90858 163.5045,76.2969 327.0188,152.60046 491.1961,233.22152 105.1446,10.18843 210.9604,24.69184 316.7754,39.19537 153.2605,-37.11782 307.195,-69.90268 464.7436,-103.25891 236.9094,25.07474 543.261,92.42753 1158.7526,173.61807 10.5827,20.4696 21.1647,40.93929 36.0269,65.16277 109.0083,-12.52854 109.0083,-12.52854 168.3811,-35.03216 131.7646,14.88636 259.6654,52.48968 387.5677,90.1024 49.802,58.60042 49.802,58.60042 80.7043,67.07022 143.4378,256.3539545 143.4378,256.3539545 257.6498,419.95255 442.9963,351.3078 934.9445,518.06471 1440.6733,678.25859 225.3999,22.44569 456.262,8.64884 676.8753,71.64256 232.6283,21.312 465.251,42.63411 702.1531,67.71039 546.5434,-5.39501 1056.5554,158.55144 1423.8774,-380.73603 175.774,-177.74426 325.169,-382.33919 517.15,-527.211242 127.31,-37.500705 251.687,-70.1160875 381.685,-90.338513 328.701,68.29526 328.701,68.29526 588.785,147.273585 263.612,-41.007225 439.722,-121.4826075 724.244,-99.394872 95.481,-28.1205852 95.481,-28.1205852 381.768,-161.127748 188.706,-47.04217 188.706,-47.04217 477.598,-91.98179 350.53,113.55995 693.585,440.60232 973.741,719.92938 196.179,310.08752 389.086,527.78207 706.443,642.08257 125.214,20.334 250.429,40.6681 379.249,60.432 382.78,-59.5448 620.189,-459.18719 1028.503,-354.61592 125.131,91.11388 247.992,191.43832 384.461,236.55772 276.461,-29.7289 549.231,11.8834 825.442,4.2991 127.893,37.6048 127.893,37.6048 240.932,50.9845 152.591,-41.4239 700.058,-254.87234 825.104,-92.9592 2.439,39.4328 4.869,78.8578 7.98,122.6148 -26.871,17.4478 -53.75,34.8966 -80.62,52.3443 5.376,34.5564 10.75,69.104 16.797,107.9753 90.191,56.7462 171.235,30.8715 256.14,-17.7289 -19.316,-76.6106 -93.221,-171.2828 -89.522,-242.6253 261.171,-270.6431 745.571,-200.02407 1039.581,1.9431 4.951,8.0783 10.576,20.4709 16.208,32.8717 406.211,162.3971 970.215,269.2939 802.428,950.0634 -189.544,184.2958 -355.742,280.9266 -600.205,349.9184 -158.304,99.8214 -293.509,134.1305 -416.458,294.7993 -22.168,47.68 -44.341,95.3704 -62.902,142.4889 18.812,120.9301 37.624,241.8602 56.434,362.7805 -55.091,596.8865 -642.019,794.3486 -1091.563,638.6821 -1.344,-8.6392 -2.687,-17.2693 -4.031,-25.9085 -96.072,-46.9833 -159.308,-1.7625 -235.648,54.3444 -196.432,282.6973 -354.899,524.0877 -603.813,730.8964 -292.756,67.6657 -622.378,17.201 -857.773,239.6036 -122.862,280.093 -122.862,280.093 -303.502,759.3764 -259.33,234.966 -464.407,390.7242 -793.269,463.9974 z"
     id="path16"
     style="fill:none;fill-opacity:1;stroke:#000000;stroke-width:178.699;stroke-miterlimit:4;stroke-dasharray:none;stroke-opacity:1" /></clipPath></defs>&#10; <g
   id="Ebene_x0020_1"
   inkscape:label="Ebene 1">&#10;  <metadata
   id="CorelCorpID_0Corel-Layer" />&#10;  <g
   id="g14"
   transform="matrix(1.2665133,0.16473137,-0.1970172,1.0589658,981.76351,1226.642)"
   clip-path="url(#clipPath16)"><rect
     style="fill:#35668f;fill-opacity:1;stroke-width:674.276;stroke-linecap:round"
     id="rect14"
     width="29075.537"
     height="24316.809"
     x="-7218.1157"
     y="-10692.045"
     transform="matrix(0.73986949,-0.67275043,0.65112358,0.75897173,0,0)" /><rect
     style="clip-rule:evenodd;fill:#f2bb30;fill-opacity:1;fill-rule:evenodd;stroke-width:674.276;stroke-linecap:round;image-rendering:optimizeQuality;shape-rendering:geometricPrecision;text-rendering:geometricPrecision"
     id="rect14-1"
     width="29075.537"
     height="24316.809"
     x="-7138.2612"
     y="9190.4131"
     transform="matrix(0.73986949,-0.67275043,0.65112358,0.75897173,0,0)" /></g>&#10; </g>&#10;</svg>
